<?xml version="1.0" standalone="no"?>
<!DOCTYPE svg PUBLIC "-//W3C//DTD SVG 1.1//EN" "http://www.w3.org/Graphics/SVG/1.1/DTD/svg11.dtd" >
<!--
2013-9-30: Created.
-->
<svg>
<metadata>
Created by iconfont
</metadata>
<defs>

<font id="iconfont" horiz-adv-x="1024" >
  <font-face
    font-family="iconfont"
    font-weight="500"
    font-stretch="normal"
    units-per-em="1024"
    ascent="896"
    descent="-128"
  />
    <missing-glyph />
    
    <glyph glyph-name="jiantouzuozhong" unicode="&#58882;" d="M256 384l512-512V7.776L391.776 384 768 760.256V896.001z"  horiz-adv-x="1024" />

    
    <glyph glyph-name="shiliangzhinengduixiang_bee-ab-a-de-ddbcf" unicode="&#58883;" d="M768 384L256-128v135.7824L632.2176 384 256 760.2688V896l512-512z"  horiz-adv-x="1024" />

    
    <glyph glyph-name="tubiao_huabanfuben6" unicode="&#58891;" d="M39.7312 91.136l450.7136 450.7136c9.0624 9.0624 23.808 9.0624 32.9216 0l461.1072-461.1072c14.6432-14.6432 39.7312-4.3008 39.7312 16.4352v79.0016c0 6.1952-2.4576 12.0832-6.8096 16.4352l-438.0672 438.0672 0.6656 0.6656-55.9616 55.9616c-9.0624 9.0624-23.808 9.0624-32.9216 0L6.8096 203.0592a23.296 23.296 0 0 1-6.8096-16.4352v-79.0016c0-20.7872 25.088-31.1296 39.7312-16.4864z"  horiz-adv-x="1024" />

    
    <glyph glyph-name="guanbi" unicode="&#58884;" d="M892.672 75.7248l-295.3728 295.3728a18.2016 18.2016 0 0 0 0 25.7536l295.3728 295.3728a18.2016 18.2016 0 0 1 0 25.7536l-46.6432 46.6432a18.2016 18.2016 0 0 1-25.7536 0l-295.3728-295.3728a18.2016 18.2016 0 0 0-25.7536 0l-295.424 295.424a18.2016 18.2016 0 0 1-25.7536 0l-46.6432-46.6432a18.2016 18.2016 0 0 1 0-25.7536l295.3728-295.3728a18.2016 18.2016 0 0 0 0-25.7536L131.328 75.776a18.2016 18.2016 0 0 1 0-25.7536l46.6432-46.6432a18.2016 18.2016 0 0 1 25.7536 0l295.3728 295.3728a18.2016 18.2016 0 0 0 25.7536 0l295.3728-295.3728a18.2016 18.2016 0 0 1 25.7536 0l46.6432 46.6432c7.168 7.0144 7.168 18.5856 0.0512 25.7024z"  horiz-adv-x="1024" />

    
    <glyph glyph-name="xiangxia" unicode="&#58885;" d="M984.4736 676.864l-450.7136-450.7136c-9.0624-9.0624-23.808-9.0624-32.9216 0L39.7312 687.2576c-14.6432 14.6432-39.7312 4.3008-39.7312-16.4352v-79.0016c0-6.1952 2.4576-12.0832 6.8096-16.4352l438.0672-438.0672-0.6656-0.6656 55.9616-55.9616c9.0624-9.0624 23.808-9.0624 32.9216 0l484.2496 484.2496a23.296 23.296 0 0 1 6.8096 16.4352V660.4288c0.0512 20.736-25.0368 31.0784-39.68 16.4352z"  horiz-adv-x="1024" />

    
    <glyph glyph-name="xiangzuo" unicode="&#58886;" d="M804.820048-88.325853l-450.645958 450.645958c-9.06104 9.06104-9.06104 23.804427 0 32.91666l461.037998 461.037998c14.641002 14.641002 4.300155 39.725237-16.432734 39.725237h-78.989743c-6.19427 0-12.081387-2.457231-16.432734-6.808578L265.355421 451.189966l-0.6655 0.6655-55.953201-55.953201c-9.06104-9.06104-9.06104-23.804427 0-32.91666l484.176925-484.176925a23.292504 23.292504 0 0 1 16.432733-6.808578h78.989744c20.78408-0.051192 31.124928 25.033043 16.483926 39.674045z"  horiz-adv-x="1024" />

    
    <glyph glyph-name="xiangshang" unicode="&#58887;" d="M39.7312 91.136l450.7136 450.7136c9.0624 9.0624 23.808 9.0624 32.9216 0l461.1072-461.1072c14.6432-14.6432 39.7312-4.3008 39.7312 16.4352v79.0016c0 6.1952-2.4576 12.0832-6.8096 16.4352l-438.0672 438.0672 0.6656 0.6656-55.9616 55.9616c-9.0624 9.0624-23.808 9.0624-32.9216 0L6.8096 203.0592a23.296 23.296 0 0 1-6.8096-16.4352v-79.0016c0-20.7872 25.088-31.1296 39.7312-16.4864z"  horiz-adv-x="1024" />

    
    <glyph glyph-name="tianjia" unicode="&#58888;" d="M999.168 435.2h-417.7408c-10.0864 0-18.2272 8.1408-18.2272 18.2272V871.168c0 10.0864-8.1408 18.2272-18.2272 18.2272H479.0272C468.9408 889.3952 460.8 881.2544 460.8 871.168v-417.7408c0-10.0864-8.1408-18.2272-18.2272-18.2272H24.832c-10.0864 0-18.2272-8.1408-18.2272-18.2272v-65.9456c0-10.0864 8.1408-18.2272 18.2272-18.2272h417.7408c10.0864 0 18.2272-8.1408 18.2272-18.2272v-417.7408c0-10.0864 8.1408-18.2272 18.2272-18.2272h65.9456c10.0864 0 18.2272 8.1408 18.2272 18.2272v417.7408c0 10.0864 8.1408 18.2272 18.2272 18.2272h417.7408c10.0864 0 18.2272 8.1408 18.2272 18.2272V416.9728c0 10.0864-8.1408 18.2272-18.2272 18.2272z"  horiz-adv-x="1024" />

    
    <glyph glyph-name="xiangyou" unicode="&#58889;" d="M219.194561 856.276745l450.623475-450.623476c9.060588-9.060588 9.060588-23.803239 0-32.915017l-461.014997-461.014997c-14.640272-14.640272-4.29994-39.723255 16.431914-39.723255h78.985803c6.193961 0 12.080784 2.457109 16.431913 6.808238l437.979605 437.979604 0.665466-0.665466 55.95041 55.950409c9.060588 9.060588 9.060588 23.803239 0 32.915017L331.095381 889.191762a23.291342 23.291342 0 0 1-16.431914 6.808238H235.626475c-20.731854 0-31.072186-25.082983-16.431914-39.723255z"  horiz-adv-x="1024" />

    
    <glyph glyph-name="tiaozhuan" unicode="&#58890;" d="M924.545291 368.19974v-378.797163a15.135524 15.135524 0 0 0-15.135524-15.135524H121.544392a15.135524 15.135524 0 0 0-15.135524 15.135524V777.267952a15.135524 15.135524 0 0 0 15.135524 15.135523h378.797164a15.135524 15.135524 0 0 1 15.135524 15.135524V879.535004A15.135524 15.135524 0 0 1 500.341556 894.670528H19.277339A15.135524 15.135524 0 0 1 4.141816 879.535004V-112.864476a15.135524 15.135524 0 0 1 15.135523-15.135524h992.399481a15.135524 15.135524 0 0 1 15.135524 15.135524v481.064216a15.135524 15.135524 0 0 1-15.135524 15.135524h-71.996005c-8.334765 0-15.135524-6.800759-15.135524-15.135524zM487.046839 409.822431l50.928992-50.928992a15.058824 15.058824 0 0 1 21.373814 0l333.441726 333.441725c9.510836 9.510836 25.822431 2.76121 25.822431-10.686907v-146.59982a15.135524 15.135524 0 0 1 15.135524-15.135524h71.996005a15.135524 15.135524 0 0 1 15.135524 15.135524V879.535004a15.135524 15.135524 0 0 1-15.135524 15.135524h-349.344252a15.135524 15.135524 0 0 1-15.135524-15.135524V807.538999a15.135524 15.135524 0 0 1 15.135524-15.135524h155.241386c13.499251 0 20.248876-16.311595 10.686907-25.82243L487.046839 431.247378a15.217337 15.217337 0 0 1 0-21.424947z"  horiz-adv-x="1028" />

    
    <glyph glyph-name="tiaozhuan1" unicode="&#58892;" d="M924.499126 368.226095v-269.051181c0-68.924552-55.886154-124.861837-124.861836-124.861837H231.265392c-68.924552 0-124.861837 55.886154-124.861837 124.861837V667.546812c0 68.924552 55.886154 124.861837 124.861837 124.861836h269.051181a15.134768 15.134768 0 0 1 15.134768 15.134768V879.535827A15.134768 15.134768 0 0 1 500.316573 894.670595H129.003445C60.078893 894.670595 4.141609 838.784441 4.141609 769.808758v-772.946921c0-68.924552 55.886154-124.861837 124.861836-124.861837H901.950367c68.924552 0 124.861837 55.886154 124.861837 124.861837v371.313127a15.134768 15.134768 0 0 1-15.134769 15.134768h-71.99241a15.098976 15.098976 0 0 1-15.185899-15.083637zM487.02252 409.846707l50.926449-50.926449a15.058072 15.058072 0 0 1 21.372747 0l333.425076 333.425076c9.510361 9.510361 25.821141 2.761073 25.821141-10.686374v-146.5925a15.134768 15.134768 0 0 1 15.134768-15.134768h71.992411a15.134768 15.134768 0 0 1 15.134768 15.134768V879.535827a15.134768 15.134768 0 0 1-15.134768 15.134768h-349.326809a15.134768 15.134768 0 0 1-15.134768-15.134768V807.543416a15.134768 15.134768 0 0 1 15.134768-15.134768h155.233634c13.498577 0 20.247865-16.31078 10.686374-25.821141L487.02252 431.270585a15.216578 15.216578 0 0 1 0-21.423878z"  horiz-adv-x="1028" />

    
    <glyph glyph-name="yonghudenglu" unicode="&#58893;" d="M772.2496 377.1904c55.3984 32.256 92.7232 92.2624 92.7232 160.8704 0 102.6048-83.456 186.112-186.0608 186.112S492.8512 640.6656 492.8512 538.0608c0-68.608 37.3248-128.6144 92.7232-160.8704a342.08256 342.08256 0 0 1-112.1792-55.3984 287.37536 287.37536 0 0 1-96.512 51.6608c43.6224 28.2112 72.6016 77.2608 72.6016 133.0176 0 87.296-71.0144 158.3104-158.3616 158.3104-87.296 0-158.3104-71.0144-158.3104-158.3104 0-55.7568 28.9792-104.8576 72.704-133.0688C87.3984 336.7936 1.3312 226.5088 1.3312 96.512c0-1.4336 1.1264-2.56 2.56-2.56h33.0752c1.4336 0 2.56 1.1264 2.56 2.56 0 138.752 112.896 251.648 251.648 251.648 55.808 0 108.8512-18.1248 152.4736-51.456-66.6624-62.7712-108.4416-151.7056-108.4416-250.2656 0-1.4336 1.1264-2.56 2.56-2.56h33.0752c1.4336 0 2.56 1.1264 2.56 2.56 0 168.4992 137.1136 305.6128 305.6128 305.6128s305.6128-137.1136 305.6128-305.6128c0-1.4336 1.1264-2.56 2.56-2.56h33.0752c1.4336 0 2.56 1.1264 2.56 2.56-0.1024 157.184-106.24 289.9968-250.5728 330.752z m-93.3376 13.0048c-81.5616 0-147.8656 66.3552-147.8656 147.9168s66.3552 147.9168 147.8656 147.9168 147.8656-66.3552 147.8656-147.9168c0.0512-81.5616-66.304-147.9168-147.8656-147.9168z m-387.7888-3.8912c-66.2528 0-120.1152 53.9136-120.1152 120.1664s53.9136 120.1152 120.1152 120.1152c66.2528 0 120.1664-53.9136 120.1664-120.1152-0.0512-66.2528-53.9136-120.1664-120.1664-120.1664z"  horiz-adv-x="1024" />

    
    <glyph glyph-name="zhucefuwujigou" unicode="&#58894;" d="M788.8896 628.992v35.3792c0 31.232-25.3952 56.576-56.6272 56.576H271.7184c-31.232 0-56.6272-25.3952-56.6272-56.576v-35.328c-18.176-29.0304-80.0768-130.6624-80.0768-164.9152 0-36.5568 25.7536-67.1744 60.0576-74.752v-285.696c0-31.232 25.3952-56.576 56.6272-56.576h520.6528c31.232 0 56.6272 25.3952 56.6272 56.576v285.696c34.304 7.5776 60.0576 38.1952 60.0576 74.752v4.7616l-100.1472 160.1024z m-540.672 35.3792c0 12.9536 10.5472 23.5008 23.5008 23.5008h460.5952c12.9536 0 23.5008-10.5472 23.5008-23.5008v-23.5008H248.2176v23.5008z m-20.0192-560.7424V390.656c15.616 5.9392 28.8256 19.456 38.7072 32.8704 13.568-21.6064 37.5296-36.0448 64.8704-36.0448 24.32 0 46.0288 11.4688 60.0576 29.184 14.0288-17.7664 35.7376-29.184 60.0576-29.184s46.0288 11.4688 60.0576 29.184c14.0288-17.7664 35.7376-29.184 60.0576-29.184h0.3584v-307.4048H251.648a23.56736 23.56736 0 0 0-23.4496 23.552z m544.1536-23.5008h-166.7584V395.3152c10.3936 5.0688 19.5072 12.3904 26.624 21.4016 14.0288-17.7664 35.7376-29.184 60.0576-29.184s46.0288 11.4688 60.0576 29.184c10.752-13.6192 26.0096-23.5008 43.52-27.3408v-285.696c-0.0512-13.0048-10.5472-23.552-23.5008-23.552z m40.0384 340.4288c-24.0128 0-43.52 19.5584-43.52 43.52h-33.1264c0-24.0128-19.5072-43.52-43.52-43.52s-43.52 19.5584-43.52 43.52h-33.1264c0-24.0128-19.5072-43.52-43.52-43.52s-43.52 19.5584-43.52 43.52h-33.1264c0-24.0128-19.5072-43.52-43.52-43.52-24.0128 0-43.52 19.5584-43.52 43.52H375.296c0-24.0128-19.5072-43.52-43.52-43.52-24.0128 0-43.52 19.5584-43.52 43.52h-16.5376l-15.104 6.7584c-9.472-21.0944-30.3104-50.3296-44.9536-50.3296-24.0128 0-43.52 19.5584-43.52 43.52 0 16.7936 36.864 85.9136 72.704 143.6672h522.3936l92.5184-148.0704c-2.304-21.8624-20.8384-39.0656-43.3664-39.0656zM652.1856 303.872a20.0192 20.0192 0 1 1 0-40.0384 20.0192 20.0192 0 0 1 20.0192 20.0192c0 11.1104-8.96 20.0192-20.0192 20.0192zM280.01792 195.46624l100.14208 100.14208 23.38816-23.38816-100.14208-100.14208zM380.16 215.40352l100.05504 100.224 23.40864-23.36768-100.05504-100.224z"  horiz-adv-x="1024" />

    
    <glyph glyph-name="yijianfankui" unicode="&#58895;" d="M805.376 727.0912H218.624c-32.9728 0-59.8016-28.3136-59.8016-63.1296v-445.8496c0-34.816 26.8288-63.1296 59.8016-63.1296h186.4704l103.8848-112.6912c0.768-0.8704 1.8944-1.3312 3.0208-1.3312 1.1776 0 2.2528 0.4608 3.0208 1.3312l103.8336 112.6912h186.5216c32.9728 0 59.8016 28.3136 59.8016 63.1296V663.9616c0 34.816-26.8288 63.1296-59.8016 63.1296zM512 93.8496l-90.5728 98.304H218.624c-9.3184 0-17.3568 6.5536-20.7872 15.872 3.4304-9.3184 11.4688-15.872 20.7872-15.872h202.8544l90.5216-98.304 90.5216 98.304h202.8544c6.1952 0 11.8784 2.9184 15.9232 7.6288-4.096-4.7104-9.728-7.6288-15.9232-7.6288h-202.8544L512 93.8496zM200.192 663.9616c0 12.032 8.2944 21.8112 18.432 21.8112h586.752c10.1888 0 18.432-9.7792 18.432-21.8112v-445.8496c0-12.032-8.2944-21.8112-18.432-21.8112h-202.8544c-1.1776 0-2.2528-0.4608-3.0208-1.3312L512 99.9424l-87.5008 94.976a4.03456 4.03456 0 0 1-3.0208 1.3312H218.624c-10.1888 0-18.432 9.7792-18.432 21.8112V663.9616z m-2.3552 10.0864c-1.1264-3.1232-1.792-6.5024-1.792-10.0864 0 3.584 0.6144 6.9632 1.792 10.0864zM272.172345 428.95831a46.848 46.848 0 1 1 91.188232 21.532459 46.848 46.848 0 1 1-91.188232-21.532459ZM466.422735 428.968763a46.848 46.848 0 1 1 91.188232 21.532459 46.848 46.848 0 1 1-91.188232-21.532459ZM673.12534 406.582104a46.848 46.848 0 1 1 66.251921 66.254233 46.848 46.848 0 1 1-66.251921-66.254233Z"  horiz-adv-x="1024" />

    
    <glyph glyph-name="fuwushengji" unicode="&#58896;" d="M895.0784 259.84c-2.5088 11.7248-9.6256 20.48-20.224 24.6272-24.7296 9.6256-65.4336-7.5776-139.4688-59.9552-8.5504-6.0416-10.7008-17.8688-4.6592-26.4704 5.9904-8.6016 17.8176-10.6496 26.4704-4.6592l3.2256 2.304c64.1536 45.4656 89.1904 52.5824 97.4848 53.4016-1.9456-16.4352-31.1296-62.1568-51.3536-82.8416-71.8336-73.1648-156.0576-68.608-253.952-63.1808-18.9952 1.024-38.1952 2.0992-57.6 2.56-82.3296 1.5872-143.2064-16.4864-207.616-51.968L221.696 165.8368l22.016 12.8512c1.536 0.9216 2.9696 1.9968 4.1984 3.328 0.8192 0.8704 82.6368 85.76 167.424 76.7488 0.3584-0.0512 33.4848-5.7856 87.808-24.7296 59.904-20.992 130.7136-15.4624 131.0208-15.2576 18.432-1.1264 42.3424-7.7312 47.2064-15.5136 0.4096-0.6144 1.28-2.048 0.4096-4.5568-18.5344-33.1776-54.1696-31.6928-106.2912-25.6-13.4144 1.536-26.368 3.0208-38.0928 3.2768-42.24 1.28-79.1552-6.656-110.4384-22.5792a18.92352 18.92352 0 0 1-8.2944-25.5488c4.7616-9.4208 16.384-13.056 25.5488-8.3456 25.6512 13.056 56.4224 19.6096 92.3648 18.4832 10.5984-0.256 22.3232-1.6384 34.56-3.0208 47.0528-5.5296 111.5136-13.0048 144.8448 46.848 7.68 18.7392 2.9184 32.8192-2.4064 41.2672-17.92 28.416-67.4304 32.6144-79.8208 33.1264-0.6144 0-65.8944-5.0688-118.016 13.2096-57.7536 20.1728-92.6208 26.112-95.232 26.5216-96.7168 10.24-183.6544-71.68-198.0928-86.1696l-84.7872-49.408c-8.8064-5.12-11.9808-16.2816-7.2192-25.2928l79.5648-151.04a18.96448 18.96448 0 0 1 16.7936-10.1376c3.7888 0 7.5264 1.1264 10.7008 3.2768 88.4736 60.2624 157.2352 92.416 256.6656 89.9072 19.0464-0.4608 37.888-1.4848 56.5248-2.5088 98.048-5.3248 199.2704-10.9568 283.136 74.5472 0.5632 0.8192 70.2464 78.0288 61.2864 120.32zM233.6768 20.9408l-61.2352 116.224 21.4528 12.4928 65.7408-112.2304c-8.5504-5.2224-17.152-10.6496-25.9584-16.4864zM384.5632 501.8624h76.6976v-179.0976c0-11.4176 9.2672-20.6848 20.6848-20.6848s20.6848 9.2672 20.6848 20.6848V522.496c0 11.4176-9.2672 20.6848-20.6848 20.6848H424.3456l136.1408 193.6896 127.0784-182.528h-51.712c-11.4176 0-20.6848-9.2672-20.6848-20.6848v-235.4176c0-11.4176 9.2672-20.6848 20.6848-20.6848s20.6848 9.2672 20.6848 20.6848V513.024h70.656c7.7312 0 14.7968 4.3008 18.3296 11.1104s3.0208 15.0528-1.3824 21.4016L577.536 784.7424a20.64384 20.64384 0 0 1-16.896 8.8576h-0.0512c-6.7584 0-13.056-3.2768-16.896-8.8064L367.616 534.4256a20.66432 20.66432 0 0 1-1.4336-21.4016c3.584-6.8608 10.6496-11.1616 18.3808-11.1616z"  horiz-adv-x="1024" />

    
    <glyph glyph-name="youbianzhixiangjiantou" unicode="&#58897;" d="M508.7232 877.3632l-65.9968-66.048a26.4192 26.4192 0 0 1 0-37.3248l316.9792-316.9792H41.728C27.1872 457.0624 15.36 445.2352 15.36 430.6432v-93.3376a26.368 26.368 0 0 1 26.368-26.368h717.9776l-316.9792-316.9792a26.4192 26.4192 0 0 1 0-37.3248l65.9968-65.9968a26.4192 26.4192 0 0 1 37.3248 0l448.4096 448.4096c24.832 24.832 24.832 65.0752 0 89.856L545.9968 877.3632a26.35776 26.35776 0 0 1-37.2736 0z"  horiz-adv-x="1024" />

    
    <glyph glyph-name="xialacaidan" unicode="&#58898;" d="M958.5664 790.7328H65.4336C29.2864 790.7328 0 761.4464 0 725.3504c0-36.1472 29.2864-65.4336 65.4336-65.4336h893.1328c36.1472 0 65.4336 29.2864 65.4336 65.4336 0 36.096-29.2864 65.3824-65.4336 65.3824zM958.5664 449.4336H65.4336C29.2864 449.4336 0 420.1472 0 384s29.2864-65.4336 65.4336-65.4336h893.1328c36.1472 0 65.4336 29.2864 65.4336 65.4336s-29.2864 65.4336-65.4336 65.4336zM958.5664 108.0832H65.4336C29.2864 108.0832 0 78.7968 0 42.6496s29.2864-65.4336 65.4336-65.4336h893.1328c36.1472 0 65.4336 29.2864 65.4336 65.4336s-29.2864 65.4336-65.4336 65.4336z"  horiz-adv-x="1024" />

    
    <glyph glyph-name="yonghudenglu1" unicode="&#58899;" d="M677.930903 354.587071c78.536873 53.347733 130.297485 143.352832 130.297486 245.235738C808.228389 763.091445 675.319834 896 512 896S215.822809 763.091445 215.822809 599.771611c0-101.882906 51.709415-191.888006 130.246288-245.235738-178.730263-67.375831-306.416679-239.706415-306.41668-441.680316 0-22.526874 18.277486-40.855557 40.855558-40.855557s40.855557 18.277486 40.855557 40.855557c0 215.438828 175.300035 390.687666 390.687665 390.687666s390.687666-175.248838 390.687666-390.687666c0-22.526874 18.277486-40.855557 40.855557-40.855557s40.855557 18.277486 40.855558 40.855557c-0.102395 202.025099-127.788811 374.355682-306.519075 441.731514zM297.482726 599.771611c0 118.266087 96.251187 214.568472 214.517274 214.568472s214.568472-96.251187 214.568472-214.568472-96.302385-214.517274-214.568472-214.517274-214.517274 96.251187-214.517274 214.517274z"  horiz-adv-x="1024" />

    
    <glyph glyph-name="xiasanjiao" unicode="&#58900;" d="M988.89727-113.282491L14.417623 815.134567C-16.290769 844.819346 5.205105 896 49.220468 896h1947.93568c44.015362 0 66.53485-51.180654 34.802844-80.865433l-974.479646-929.440671c-18.425035-18.425035-49.133428-18.425035-68.582076 1.023613z"  horiz-adv-x="2047" />

    
    <glyph glyph-name="sousuo" unicode="&#58901;" d="M1012.224-53.248l-171.52 183.296a457.3696 457.3696 0 0 1 111.616 299.52C952.32 686.592 738.816 896 476.16 896 213.504 896 0 686.592 0 429.568s213.504-466.432 476.16-466.432c113.664 0 218.112 39.424 300.032 104.448l168.96-181.248c8.704-9.216 20.992-14.336 33.28-14.336 10.752 0 22.016 4.096 30.72 11.776 18.432 16.384 19.968 44.544 3.072 62.976zM91.136 429.568c0 207.872 172.544 377.344 385.024 377.344 212.48 0 385.024-169.472 385.024-377.344s-172.544-377.344-385.024-377.344c-212.48 0-385.024 169.472-385.024 377.344z"  horiz-adv-x="1024" />

    
    <glyph glyph-name="xiazai" unicode="&#58902;" d="M911.928036 896H124.865567C59.874063 896 6.652674 843.802099 6.652674 779.322339v-525.049475c0-64.47976 53.221389-116.677661 118.212893-116.677662H301.929035c15.864068 0 29.169415 12.793603 29.169416 28.657672s-13.305347 28.657671-29.169416 28.657671H124.865567c-33.263368 0-59.874063 26.610695-59.874063 59.362319V779.322339c0 32.751624 27.122439 59.362319 59.874063 59.362319h787.062469c33.263368 0 59.874063-26.610695 59.874063-59.362319v-525.049475c0-32.751624-27.122439-59.362319-59.874063-59.362319h-154.034983c-15.864068 0-29.169415-12.793603-29.169415-28.657671s13.305347-28.657671 29.169415-28.657672h154.034983c64.991504 0 118.212894 52.197901 118.212894 116.677662V779.322339c0 64.47976-53.221389 116.677661-118.212894 116.677661zM693.925037 67.998001l-114.630684-113.095452c-9.211394-9.211394-19.958021-15.352324-31.728136-19.446277V470.74063c0 15.864068-13.305347 28.657671-29.169415 28.657671-16.375812 0-29.169415-12.793603-29.169416-28.657671v-535.284358c-11.770115 4.093953-22.516742 10.234883-31.728136 19.446277L342.868566 67.998001a29.681159 29.681159 0 0 1-41.451275 0c-11.258371-11.258371-11.258371-29.681159 0-40.93953l114.630685-113.095453c28.145927-27.634183 64.991504-41.963018 102.348826-41.963018 36.845577 0 74.202899 13.817091 102.348825 41.963018l114.630685 113.095453c11.258371 11.258371 11.258371 29.681159 0 40.93953a29.681159 29.681159 0 0 1-41.451275 0z"  horiz-adv-x="1030" />

    
    <glyph glyph-name="t" unicode="&#58903;" d="M154.3168 124.8256l157.184 445.7472H75.0592L110.592 670.72h838.2464l-35.328-100.1472H642.4576L485.2736 124.8256H154.3168z"  horiz-adv-x="1024" />

    
    <glyph glyph-name="n" unicode="&#58904;" d="M812.032 670.8224h202.4448L821.8624 124.8256H412.9792L326.656 450.56 211.968 124.8256H9.5232l78.848 223.8464 113.664 322.1504H609.28l85.504-332.9024L812.032 670.8224z"  horiz-adv-x="1024" />

    
    <glyph glyph-name="e" unicode="&#58905;" d="M379.1872 316.3136c-19.2512-57.7536 16.9984-88.7808 108.4416-93.0816h340.0704l-34.816-98.5088H250.7776c-125.6448-0.4096-195.072 31.3344-208.7936 95.8464-6.144 26.9312-3.9936 58.88 6.0416 95.6416l36.864 104.8576c21.2992 48.2304 47.3088 89.7024 77.9264 124.2112 74.6496 82.8416 168.5504 124.6208 282.2144 125.3376H985.2928l-35.2256-100.1472H619.9296c-85.2992 0-145.7152-28.4672-181.1456-85.0944l-15.5648-43.8272h481.4848l-31.5392-89.6H391.7824l-12.5952-35.6352z"  horiz-adv-x="1024" />

    
    <glyph glyph-name="k" unicode="&#58906;" d="M769.7408 479.744H134.656l-20.5824-58.5728-3.2768-9.3184h668.5696l-9.6256 67.8912z m27.136-191.5904h-360.448l13.9264-67.8912h356.352l-9.8304 67.8912z m-13.5168 95.744H100.864L77.1072 316.416l-0.1024-0.3072h715.8784l-9.5232 67.7888z m36.0448 286.9248l-107.9296-67.3792h204.8l98.0992 67.3792H819.4048z m-776.2944-450.56h331.1616l1.024 3.072 22.8352 64.8192H67.1744l-24.064-67.8912z m490.0864 450.56H202.0352l-23.6544-67.3792h330.9568l23.8592 67.3792zM9.5232 124.8256h331.1616l23.6544 67.6864H33.28L9.5232 124.8256z m446.5664 67.6864l14.5408-70.9632h350.208l-10.0352 70.9632H456.0896z m101.9904 315.0848h218.5216l98.9184 67.7888H666.8288L558.08 507.5968z m-58.4704 67.8912H168.3456l-23.8592-67.7888h331.0592l24.064 67.7888z"  horiz-adv-x="1024" />

    
    <glyph glyph-name="n1" unicode="&#58907;" d="M812.032 670.8224h202.4448L821.8624 124.8256H412.9792L326.656 450.56 211.968 124.8256H9.5232l78.848 223.8464 113.664 322.1504H609.28l85.504-332.9024L812.032 670.8224z"  horiz-adv-x="1024" />

    
    <glyph glyph-name="k1" unicode="&#58908;" d="M769.7408 479.744H134.656l-20.5824-58.5728-3.2768-9.3184h668.5696l-9.6256 67.8912z m27.136-191.5904h-360.448l13.9264-67.8912h356.352l-9.8304 67.8912z m-13.5168 95.744H100.864L77.1072 316.416l-0.1024-0.3072h715.8784l-9.5232 67.7888z m36.0448 286.9248l-107.9296-67.3792h204.8l98.0992 67.3792H819.4048z m-776.2944-450.56h331.1616l1.024 3.072 22.8352 64.8192H67.1744l-24.064-67.8912z m490.0864 450.56H202.0352l-23.6544-67.3792h330.9568l23.8592 67.3792zM9.5232 124.8256h331.1616l23.6544 67.6864H33.28L9.5232 124.8256z m446.5664 67.6864l14.5408-70.9632h350.208l-10.0352 70.9632H456.0896z m101.9904 315.0848h218.5216l98.9184 67.7888H666.8288L558.08 507.5968z m-58.4704 67.8912H168.3456l-23.8592-67.7888h331.0592l24.064 67.7888z"  horiz-adv-x="1024" />

    
    <glyph glyph-name="t1" unicode="&#58909;" d="M154.3168 124.8256l157.184 445.7472H75.0592L110.592 670.72h838.2464l-35.328-100.1472H642.4576L485.2736 124.8256H154.3168z"  horiz-adv-x="1024" />

    
    <glyph glyph-name="e1" unicode="&#58910;" d="M379.1872 316.3136c-19.2512-57.7536 16.9984-88.7808 108.4416-93.0816h340.0704l-34.816-98.5088H250.7776c-125.6448-0.4096-195.072 31.3344-208.7936 95.8464-6.144 26.9312-3.9936 58.88 6.0416 95.6416l36.864 104.8576c21.2992 48.2304 47.3088 89.7024 77.9264 124.2112 74.6496 82.8416 168.5504 124.6208 282.2144 125.3376H985.2928l-35.2256-100.1472H619.9296c-85.2992 0-145.7152-28.4672-181.1456-85.0944l-15.5648-43.8272h481.4848l-31.5392-89.6H391.7824l-12.5952-35.6352z"  horiz-adv-x="1024" />

    
    <glyph glyph-name="beilongzhongwanglogo_huaban" unicode="&#58911;" d="M8082.924667 776.151794h-292.214165l42.129626 119.848206h-277.209093l-42.129626-119.848206-416.486943-1.346609L6867.706181 121.699793l-24.431336-69.638925-25.585572-71.177907h414.370843L7194.739808-127.615255h277.01672l38.474545 108.305843H7989.046778l37.512681 103.111779 180.445613 510.749577c43.476235 121.002442 1.923727 181.59985-124.080405 181.59985z m-824.894233-724.668044h-206.993049l230.847267 653.68251 205.838812-0.384746-229.69303-653.297764z m670.803682 544.222431l-191.795604-544.222431H7535.431899L7766.086793 705.16626h77.71858c82.335525 0 110.614315-36.358444 85.028743-109.460079zM9521.103137 883.495773L8472.864174 885.611873l-358.005636-1013.227128h201.798986l49.632162 139.662597h148.896487l86.567725 109.460079 5.194064-34.819463c1.538982-52.517753 37.705054-79.065189 108.690588-79.065189h57.327071c72.909262 0 127.158369 21.545745 163.132068 64.060117l7.310164 12.888972 10.580499-72.716889h149.08886l-49.247417-139.662596h273.169266l34.62709 97.917715c0.577118 1.731354 1.538982 3.270336-20.776254-59.827916l267.590456 758.140898C9667.691152 835.21022 9631.332707 885.4195 9521.103137 883.495773zM8389.374413 78.415931l168.518505 478.623333 37.127935-229.308285-205.64644-249.315048z m453.422506 94.262634c-10.195754-11.927109-23.084727-19.429645-39.244035-22.892354-14.427954 2.500845-21.738118 8.849145-22.507609 18.467781l-19.237272 176.790532 151.782078 196.412549 28.471163-228.923539-99.264325-139.854969z m278.363329-103.111779l-29.817772 231.80913 209.493894 270.476047-179.676122-502.285177z m227.192185 637.907946h-126.581251l-134.27616-188.910013-1.346609 188.910013H8852.992673l-111.960924-165.440541-12.119481 165.440541h-117.732106l37.51268 106.766861h650.796919c106.766861 0.192373 59.058426-78.872816 48.862672-106.766861zM3123.940635 881.1873h372.048845l-353.965809-1003.223746h-751.600226l-158.515123 598.663912-211.032876-598.663912H1649.211347l144.85666 411.29288L2002.984783 881.1873h748.329889l156.976141-611.745256L3123.940635 881.1873zM4030.785647 230.005636c-35.396581-105.99737 31.164381-163.132068 199.29814-171.01935h625.018975l-63.867744-181.022732h-996.105955c-230.847267-0.769491-358.390381 57.519444-383.591208 176.213414-11.349991 49.43979-7.310163 108.11347 11.157617 175.828668l67.715199 192.565095c39.051663 88.683825 86.95247 164.863423 143.125305 228.346421C3770.697727 803.276348 3943.256059 880.033064 4152.172835 881.379673H5145.200827l-64.829608-184.100695h-606.935938c-156.783769 0-267.590457-52.32538-332.997182-156.399023l-28.471163-80.411798h884.722149l-57.904189-164.67105h-884.722149l-23.2771-65.791471zM5379.895548-122.036446l288.751456 819.123051H5234.46177l65.406725 184.100695h1540.520759l-64.829607-184.100695h-498.245351L5988.562841-122.036446h-608.667293zM1397.010708 530.299455H229.885403l-37.897426-107.728724-5.963555-17.121172h1228.684577l-17.698291 124.849896z m49.824535-352.234454H784.495961l25.585572-124.657524h654.836746l-18.083036 124.657524z m-24.816081 176.021041H167.941386l-43.668607-124.080406-0.192373-0.577118h1315.444674l-17.505918 124.657524zM1488.195379 881.1873l-198.143904-123.69566h376.473417L1846.778133 881.1873H1488.195379zM61.751644 53.407477h608.47492l1.923727 5.578809 41.937254 119.078715H105.804997l-44.053353-124.657524zM962.248356 881.1873H353.773436l-43.476235-123.69566h608.282547L962.248356 881.1873zM0-122.036446h608.47492l43.476235 124.272779H43.668608L0-122.036446z m820.46966 124.465152l26.739808-130.428706h643.486756l-18.467781 130.428706H820.46966z m187.563404 579.041893h401.674244l181.792222 124.657524H1207.908322L1008.033064 581.470599z m-107.536352 124.657524H292.021792l-43.86098-124.657524h608.47492l43.86098 124.657524z"  horiz-adv-x="9693" />

    
    <glyph glyph-name="beilongzhongwanglogo_huaban1" unicode="&#58912;" d="M8082.924667 776.151794h-292.214165l42.129626 119.848206h-277.209093l-42.129626-119.848206-416.486943-1.346609L6867.706181 121.699793l-24.431336-69.638925-25.585572-71.177907h414.370843L7194.739808-127.615255h277.01672l38.474545 108.305843H7989.046778l37.512681 103.111779 180.445613 510.749577c43.476235 121.002442 1.923727 181.59985-124.080405 181.59985z m-824.894233-724.668044h-206.993049l230.847267 653.68251 205.838812-0.384746-229.69303-653.297764z m670.803682 544.222431l-191.795604-544.222431H7535.431899L7766.086793 705.16626h77.71858c82.335525 0 110.614315-36.358444 85.028743-109.460079zM9521.103137 883.495773L8472.864174 885.611873l-358.005636-1013.227128h201.798986l49.632162 139.662597h148.896487l86.567725 109.460079 5.194064-34.819463c1.538982-52.517753 37.705054-79.065189 108.690588-79.065189h57.327071c72.909262 0 127.158369 21.545745 163.132068 64.060117l7.310164 12.888972 10.580499-72.716889h149.08886l-49.247417-139.662596h273.169266l34.62709 97.917715c0.577118 1.731354 1.538982 3.270336-20.776254-59.827916l267.590456 758.140898C9667.691152 835.21022 9631.332707 885.4195 9521.103137 883.495773zM8389.374413 78.415931l168.518505 478.623333 37.127935-229.308285-205.64644-249.315048z m453.422506 94.262634c-10.195754-11.927109-23.084727-19.429645-39.244035-22.892354-14.427954 2.500845-21.738118 8.849145-22.507609 18.467781l-19.237272 176.790532 151.782078 196.412549 28.471163-228.923539-99.264325-139.854969z m278.363329-103.111779l-29.817772 231.80913 209.493894 270.476047-179.676122-502.285177z m227.192185 637.907946h-126.581251l-134.27616-188.910013-1.346609 188.910013H8852.992673l-111.960924-165.440541-12.119481 165.440541h-117.732106l37.51268 106.766861h650.796919c106.766861 0.192373 59.058426-78.872816 48.862672-106.766861zM3123.940635 881.1873h372.048845l-353.965809-1003.223746h-751.600226l-158.515123 598.663912-211.032876-598.663912H1649.211347l144.85666 411.29288L2002.984783 881.1873h748.329889l156.976141-611.745256L3123.940635 881.1873zM4030.785647 230.005636c-35.396581-105.99737 31.164381-163.132068 199.29814-171.01935h625.018975l-63.867744-181.022732h-996.105955c-230.847267-0.769491-358.390381 57.519444-383.591208 176.213414-11.349991 49.43979-7.310163 108.11347 11.157617 175.828668l67.715199 192.565095c39.051663 88.683825 86.95247 164.863423 143.125305 228.346421C3770.697727 803.276348 3943.256059 880.033064 4152.172835 881.379673H5145.200827l-64.829608-184.100695h-606.935938c-156.783769 0-267.590457-52.32538-332.997182-156.399023l-28.471163-80.411798h884.722149l-57.904189-164.67105h-884.722149l-23.2771-65.791471zM5379.895548-122.036446l288.751456 819.123051H5234.46177l65.406725 184.100695h1540.520759l-64.829607-184.100695h-498.245351L5988.562841-122.036446h-608.667293zM1397.010708 530.299455H229.885403l-37.897426-107.728724-5.963555-17.121172h1228.684577l-17.698291 124.849896z m49.824535-352.234454H784.495961l25.585572-124.657524h654.836746l-18.083036 124.657524z m-24.816081 176.021041H167.941386l-43.668607-124.080406-0.192373-0.577118h1315.444674l-17.505918 124.657524zM1488.195379 881.1873l-198.143904-123.69566h376.473417L1846.778133 881.1873H1488.195379zM61.751644 53.407477h608.47492l1.923727 5.578809 41.937254 119.078715H105.804997l-44.053353-124.657524zM962.248356 881.1873H353.773436l-43.476235-123.69566h608.282547L962.248356 881.1873zM0-122.036446h608.47492l43.476235 124.272779H43.668608L0-122.036446z m820.46966 124.465152l26.739808-130.428706h643.486756l-18.467781 130.428706H820.46966z m187.563404 579.041893h401.674244l181.792222 124.657524H1207.908322L1008.033064 581.470599z m-107.536352 124.657524H292.021792l-43.86098-124.657524h608.47492l43.86098 124.657524z"  horiz-adv-x="9693" />

    


  </font>
</defs>
</svg>
